<svg width="88" height="88" viewBox="0 0 88 88" fill="none" xmlns="http://www.w3.org/2000/svg">
<circle cx="44" cy="44" r="44" fill="#002E5B"/>
<g clip-path="url(#clip0)">
<path d="M62.9575 29.4894C63.3506 29.4894 63.7276 29.6456 64.0056 29.9236C64.2836 30.2016 64.4397 30.5786 64.4397 30.9717V57.6526C64.4397 58.0457 64.2836 58.4227 64.0056 58.7007C63.7276 58.9787 63.3506 59.1348 62.9575 59.1348H24.4184C24.0253 59.1348 23.6483 58.9787 23.3703 58.7007C23.0923 58.4227 22.9362 58.0457 22.9362 57.6526V30.9717C22.9362 30.5786 23.0923 30.2016 23.3703 29.9236C23.6483 29.6456 24.0253 29.4894 24.4184 29.4894H62.9575ZM24.4184 26.5249C23.2391 26.5249 22.108 26.9934 21.2741 27.8273C20.4401 28.6613 19.9716 29.7923 19.9716 30.9717V57.6526C19.9716 58.8319 20.4401 59.963 21.2741 60.7969C22.108 61.6309 23.2391 62.0994 24.4184 62.0994H62.9575C64.1368 62.0994 65.2679 61.6309 66.1018 60.7969C66.9358 59.963 67.4043 58.8319 67.4043 57.6526V30.9717C67.4043 29.7923 66.9358 28.6613 66.1018 27.8273C65.2679 26.9934 64.1368 26.5249 62.9575 26.5249H24.4184Z" fill="white"/>
<path d="M40.7234 36.9008C40.7234 36.5077 40.8796 36.1306 41.1576 35.8527C41.4355 35.5747 41.8126 35.4185 42.2057 35.4185H57.0284C57.4215 35.4185 57.7985 35.5747 58.0765 35.8527C58.3545 36.1306 58.5107 36.5077 58.5107 36.9008C58.5107 37.2939 58.3545 37.6709 58.0765 37.9489C57.7985 38.2269 57.4215 38.3831 57.0284 38.3831H42.2057C41.8126 38.3831 41.4355 38.2269 41.1576 37.9489C40.8796 37.6709 40.7234 37.2939 40.7234 36.9008ZM36.2885 34.3691C36.4265 34.5068 36.536 34.6703 36.6107 34.8504C36.6855 35.0305 36.7239 35.2235 36.7239 35.4185C36.7239 35.6135 36.6855 35.8065 36.6107 35.9866C36.536 36.1667 36.4265 36.3303 36.2885 36.468L31.8417 40.9148C31.704 41.0528 31.5404 41.1623 31.3603 41.2371C31.1802 41.3118 30.9872 41.3502 30.7922 41.3502C30.5972 41.3502 30.4042 41.3118 30.2241 41.2371C30.044 41.1623 29.8804 41.0528 29.7428 40.9148L28.2605 39.4325C28.1227 39.2947 28.0133 39.1311 27.9388 38.951C27.8642 38.7709 27.8258 38.578 27.8258 38.3831C27.8258 37.9894 27.9822 37.6119 28.2605 37.3336C28.5388 37.0553 28.9163 36.8989 29.3099 36.8989C29.7036 36.8989 30.081 37.0553 30.3594 37.3336L30.7922 37.7694L34.1896 34.3691C34.3273 34.231 34.4908 34.1215 34.6709 34.0468C34.851 33.9721 35.044 33.9336 35.239 33.9336C35.434 33.9336 35.627 33.9721 35.8071 34.0468C35.9872 34.1215 36.1508 34.231 36.2885 34.3691ZM40.7234 48.7589C40.7234 48.3658 40.8796 47.9888 41.1576 47.7108C41.4355 47.4328 41.8126 47.2767 42.2057 47.2767H57.0284C57.4215 47.2767 57.7985 47.4328 58.0765 47.7108C58.3545 47.9888 58.5107 48.3658 58.5107 48.7589C58.5107 49.1521 58.3545 49.5291 58.0765 49.8071C57.7985 50.085 57.4215 50.2412 57.0284 50.2412H42.2057C41.8126 50.2412 41.4355 50.085 41.1576 49.8071C40.8796 49.5291 40.7234 49.1521 40.7234 48.7589ZM36.2885 46.2272C36.4265 46.3649 36.536 46.5285 36.6107 46.7086C36.6855 46.8886 36.7239 47.0817 36.7239 47.2767C36.7239 47.4716 36.6855 47.6647 36.6107 47.8448C36.536 48.0249 36.4265 48.1884 36.2885 48.3261L31.8417 52.7729C31.704 52.911 31.5404 53.0205 31.3603 53.0952C31.1802 53.1699 30.9872 53.2084 30.7922 53.2084C30.5972 53.2084 30.4042 53.1699 30.2241 53.0952C30.044 53.0205 29.8804 52.911 29.7428 52.7729L28.2605 51.2907C28.1227 51.1528 28.0133 50.9892 27.9388 50.8092C27.8642 50.6291 27.8258 50.4361 27.8258 50.2412C27.8258 50.0463 27.8642 49.8533 27.9388 49.6732C28.0133 49.4932 28.1227 49.3296 28.2605 49.1918C28.3983 49.0539 28.5619 48.9446 28.742 48.87C28.922 48.7955 29.115 48.7571 29.3099 48.7571C29.5048 48.7571 29.6978 48.7955 29.8779 48.87C30.058 48.9446 30.2216 49.0539 30.3594 49.1918L30.7922 49.6275L34.1896 46.2272C34.3273 46.0892 34.4908 45.9797 34.6709 45.9049C34.851 45.8302 35.044 45.7917 35.239 45.7917C35.434 45.7917 35.627 45.8302 35.8071 45.9049C35.9872 45.9797 36.1508 46.0892 36.2885 46.2272Z" fill="white"/>
</g>
<defs>
<clipPath id="clip0">
<rect width="47.4326" height="47.4326" fill="white" transform="translate(19.9716 20.5957)"/>
</clipPath>
</defs>
</svg>
