<svg width="51" height="50" viewBox="0 0 51 50" fill="none" xmlns="http://www.w3.org/2000/svg">
<path d="M0 3.58125C0 1.60313 1.67662 0 3.74531 0H47.2547C49.3234 0 51 1.60313 51 3.58125V46.4188C51 48.3969 49.3234 50 47.2547 50H3.74531C1.67662 50 0 48.3969 0 46.4188V3.58125ZM15.7558 41.8563V19.2781H8.10262V41.8563H15.7558ZM11.9308 16.1938C14.5988 16.1938 16.2594 14.4625 16.2594 12.2937C16.2116 10.0781 14.6019 8.39375 11.9818 8.39375C9.36169 8.39375 7.65 10.0813 7.65 12.2937C7.65 14.4625 9.31069 16.1938 11.8798 16.1938H11.9308ZM27.5751 41.8563V29.2469C27.5751 28.5719 27.6261 27.8969 27.8301 27.4156C28.3815 26.0687 29.6406 24.6719 31.7571 24.6719C34.527 24.6719 35.6331 26.7406 35.6331 29.7781V41.8563H43.2863V28.9062C43.2863 21.9688 39.5122 18.7437 34.476 18.7437C30.4151 18.7437 28.5951 20.9312 27.5751 22.4719V22.55H27.5241C27.541 22.5239 27.558 22.4979 27.5751 22.4719V19.2781H19.9251C20.0207 21.3969 19.9251 41.8563 19.9251 41.8563H27.5751Z" fill="#456687"/>
</svg>
