<svg width="50" height="50" viewBox="0 0 50 50" fill="none" xmlns="http://www.w3.org/2000/svg">
<g clip-path="url(#clip0)">
<path d="M49.9985 25.1562C49.9985 11.2625 38.8047 0 24.9985 0C11.186 0.003125 -0.00775146 11.2625 -0.00775146 25.1594C-0.00775146 37.7125 9.136 48.1187 21.086 50.0062V32.4281H14.7422V25.1594H21.0922V19.6125C21.0922 13.3094 24.8266 9.82812 30.536 9.82812C33.2735 9.82812 36.1329 10.3188 36.1329 10.3188V16.5063H32.9797C29.8766 16.5063 28.9079 18.4469 28.9079 20.4375V25.1562H35.8391L34.7329 32.425H28.9047V50.0031C40.8547 48.1156 49.9985 37.7094 49.9985 25.1562Z" fill="#456687"/>
</g>
<defs>
<clipPath id="clip0">
<rect width="50" height="50" fill="white"/>
</clipPath>
</defs>
</svg>
