<svg width="51" height="50" viewBox="0 0 51 50" fill="none" xmlns="http://www.w3.org/2000/svg">
<path d="M16.0204 46.875C35.2665 46.875 45.7948 31.2406 45.7948 17.7062C45.7948 17.2687 45.7948 16.825 45.7757 16.3875C47.8254 14.9327 49.5945 13.1317 51 11.0687C49.0853 11.8964 47.0563 12.4419 44.9788 12.6875C47.1671 11.4051 48.8061 9.38737 49.5911 7.00934C47.5351 8.20348 45.2849 9.04176 42.9388 9.48747C41.3616 7.84067 39.2745 6.74971 37.0008 6.38359C34.7271 6.01746 32.3937 6.3966 30.362 7.46227C28.3304 8.52795 26.7138 10.2207 25.7628 12.2783C24.8118 14.3359 24.5794 16.6435 25.1016 18.8437C20.9411 18.6392 16.8709 17.5796 13.1549 15.7335C9.43905 13.8875 6.16043 11.2964 3.53175 8.12809C2.19727 10.3877 1.79002 13.0606 2.39268 15.6039C2.99535 18.1473 4.56276 20.3704 6.77662 21.8218C5.11766 21.7666 3.49516 21.3298 2.04 20.5468V20.6875C2.04286 23.0546 2.87929 25.3482 4.40791 27.1805C5.93653 29.0128 8.06357 30.2715 10.4295 30.7437C9.53146 30.9863 8.60379 31.1072 7.67231 31.1031C7.01564 31.105 6.36028 31.0454 5.71519 30.925C6.38388 32.9627 7.68593 34.7442 9.43897 36.0202C11.192 37.2962 13.3082 38.0026 15.4913 38.0406C11.7828 40.8962 7.20184 42.445 2.48625 42.4375C1.65533 42.4409 0.824999 42.3939 0 42.2968C4.78608 45.2883 10.3444 46.8767 16.0204 46.875Z" fill="#456687"/>
</svg>
