<svg width="88" height="88" viewBox="0 0 88 88" fill="none" xmlns="http://www.w3.org/2000/svg">
<circle cx="44" cy="44" r="44" fill="#002E5B"/>
<path d="M28.8652 62.0994C28.8652 62.0994 25.9007 62.0994 25.9007 59.1348C25.9007 56.1703 28.8652 47.2767 43.6879 47.2767C58.5106 47.2767 61.4752 56.1703 61.4752 59.1348C61.4752 62.0994 58.5106 62.0994 58.5106 62.0994H28.8652ZM43.6879 44.3121C46.0467 44.3121 48.3088 43.3751 49.9767 41.7073C51.6445 40.0394 52.5815 37.7773 52.5815 35.4185C52.5815 33.0598 51.6445 30.7977 49.9767 29.1298C48.3088 27.4619 46.0467 26.5249 43.6879 26.5249C41.3292 26.5249 39.0671 27.4619 37.3992 29.1298C35.7313 30.7977 34.7943 33.0598 34.7943 35.4185C34.7943 37.7773 35.7313 40.0394 37.3992 41.7073C39.0671 43.3751 41.3292 44.3121 43.6879 44.3121Z" fill="white"/>
</svg>
